<svg width="111" height="56" viewBox="0 0 111 56" fill="none" xmlns="http://www.w3.org/2000/svg">
<g clip-path="url(#clip0_10_400)">
<path d="M18.77 55.2413H0.54834V37.0196C10.6099 37.0196 18.77 45.1798 18.77 55.2413Z" fill="#1C75BC"/>
<path d="M19.9744 55.2413H38.1961V37.0196C28.1346 37.0196 19.9744 45.1798 19.9744 55.2413Z" fill="#1C75BC"/>
<path d="M15.9417 10.0693V26.9445C15.9417 28.3248 16.2462 29.4209 16.8484 30.2261C17.4574 31.0313 18.4317 31.4305 19.785 31.4305C21.1382 31.4305 22.1397 31.0313 22.7892 30.2261C23.4388 29.4209 23.7636 28.3316 23.7636 26.9445V10.0693H33.1146V26.9445C33.1146 29.7931 32.5192 32.2222 31.3418 34.2386C30.1577 36.2549 28.5338 37.7706 26.4769 38.7855C24.4199 39.8005 22.1194 40.308 19.582 40.308C17.0446 40.308 14.7982 39.8005 12.836 38.7855C10.8737 37.7706 9.34454 36.2617 8.24839 34.2589C7.15225 32.256 6.59741 29.8202 6.59741 26.9377V10.0693H15.9417Z" fill="#333132"/>
<path d="M43.8799 25.1717C44.2723 28.1015 46.5525 29.1097 50.4432 29.1097C54.6045 29.1097 56.8306 27.973 56.8306 25.1243C56.8306 21.0104 40.111 24.9484 40.111 16.8085C40.111 10.5091 47.7705 10.0219 50.4838 10.0219C53.894 10.0219 59.8957 11.0707 60.5521 15.9289L56.6547 16.4973C56.2149 14.0885 54.2053 13.3915 50.3958 13.3915C46.5864 13.3915 44.4009 14.1832 44.4009 16.9371C44.4009 21.139 61.1204 17.201 61.1204 25.2055C61.1204 31.9042 53.1091 32.4726 50.3552 32.4726C47.8179 32.4726 40.2463 31.7283 39.7186 25.9092L43.8799 25.1649V25.1717Z" fill="#333132"/>
<path d="M67.907 0.968628H63.6172V32.2155H67.907V0.968628Z" fill="#333132"/>
<path d="M70.4038 21.2743C70.4038 13.7028 76.0063 10.0287 82.4817 10.0693C89.0044 10.1167 94.6069 13.7028 94.6069 21.2743C94.6069 28.8458 89.0044 32.4794 82.4817 32.4794C75.959 32.4794 70.4038 28.8458 70.4038 21.2743ZM74.6937 21.2743C74.6937 26.3964 78.1512 28.8052 82.4817 28.8052C86.8121 28.8052 90.3171 26.3085 90.3171 21.2743C90.3171 16.2402 86.643 13.7502 82.4817 13.7028C78.4557 13.6555 74.6937 16.3281 74.6937 21.2743Z" fill="#333132"/>
<path d="M94.9115 14.1832V10.1573H95.7438C97.7601 10.1573 100.297 6.52376 100.297 3.50598L104.628 3.45862C104.54 5.86743 103.444 8.22887 101.434 9.5889C100.69 10.0693 99.4652 10.1979 98.5924 10.3738V10.4618C99.4652 10.2858 100.649 10.1573 101.522 10.1573H109.27V14.1832H103.714V25.8281C103.714 27.7565 104.763 28.1895 106.123 28.1895H110.325V32.2155H106.34C100.609 32.2155 99.4246 30.0706 99.4246 24.9958V14.1832H94.9183H94.9115Z" fill="#333132"/>
<path d="M40.8959 37.1684V36.6948H40.9907C41.2275 36.6948 41.5252 36.2685 41.5252 35.9166H42.0327C42.0259 36.194 41.8906 36.4715 41.6538 36.6339C41.5658 36.688 41.4237 36.7083 41.3222 36.7286C41.4237 36.715 41.5658 36.7015 41.6673 36.7015H42.5807V37.1752H41.9312V38.542C41.9312 38.7652 42.053 38.8194 42.2154 38.8194H42.7093V39.293H42.2424C41.5658 39.293 41.4305 39.0427 41.4305 38.4472V37.1752H40.9027L40.8959 37.1684Z" fill="#333132"/>
<path d="M43.846 38.0142V36.7015H44.3467V38.0142C44.3467 38.5623 44.5565 38.8059 44.976 38.8059C45.1993 38.8059 45.6932 38.6232 45.6932 37.6624V36.7015H46.1939V39.2727H45.6932V38.7788C45.6932 38.6705 45.7135 38.5352 45.7338 38.4337H45.727C45.6323 38.9141 45.3481 39.3133 44.8001 39.3133C44.0558 39.3133 43.846 38.6908 43.846 38.0142Z" fill="#333132"/>
<path d="M47.554 37.1684V36.6948H47.6487C47.8855 36.6948 48.1832 36.2685 48.1832 35.9166H48.6907C48.6839 36.194 48.5486 36.4715 48.3118 36.6339C48.2238 36.688 48.0817 36.7083 47.9802 36.7286C48.0817 36.715 48.2238 36.7015 48.3253 36.7015H49.2388V37.1752H48.5892V38.542C48.5892 38.7652 48.711 38.8194 48.8734 38.8194H49.3673V39.293H48.9005C48.2238 39.293 48.0885 39.0427 48.0885 38.4472V37.1752H47.5607L47.554 37.1684Z" fill="#333132"/>
<path d="M50.3552 38.0007C50.3552 37.1143 51.0116 36.6812 51.7762 36.688C52.5407 36.688 53.1971 37.1143 53.1971 38.0007C53.1971 38.8871 52.5407 39.3201 51.7762 39.3201C51.0116 39.3201 50.3552 38.8938 50.3552 38.0007ZM50.8627 38.0007C50.8627 38.6029 51.2687 38.8871 51.7762 38.8871C52.2836 38.8871 52.6964 38.5961 52.6964 38.0007C52.6964 37.4052 52.2633 37.1143 51.7762 37.1143C51.3025 37.1143 50.8627 37.4255 50.8627 38.0007Z" fill="#333132"/>
<path d="M55.1255 36.7151H56.1607V37.1887H55.2946C55.0037 37.1887 54.9496 37.2226 54.9496 37.5812V39.2863H54.4489V37.4053C54.4489 36.9451 54.6654 36.7151 55.1322 36.7151" fill="#333132"/>
<path d="M59.3138 37.1685V36.6948H59.7942C59.9025 36.6948 60.0378 36.7151 60.1393 36.7354V36.7219C60.0378 36.7016 59.889 36.6813 59.8145 36.6136C59.7333 36.546 59.6522 36.4377 59.6522 36.3024C59.6522 35.9776 59.9228 35.6799 60.9378 35.6799V36.1129C60.437 36.1129 60.1461 36.2144 60.1461 36.3971C60.1461 36.5798 60.3829 36.6881 60.5724 36.6881H60.9378V37.1617H60.3558V39.2796H59.8551V37.1617H59.3071L59.3138 37.1685Z" fill="#333132"/>
<path d="M61.9188 38.0007C61.9188 37.1143 62.5752 36.6812 63.3398 36.688C64.1043 36.688 64.7607 37.1143 64.7607 38.0007C64.7607 38.8871 64.1043 39.3201 63.3398 39.3201C62.5752 39.3201 61.9188 38.8938 61.9188 38.0007ZM62.4195 38.0007C62.4195 38.6029 62.8255 38.8871 63.333 38.8871C63.8405 38.8871 64.2532 38.5961 64.2532 38.0007C64.2532 37.4052 63.8202 37.1143 63.333 37.1143C62.8593 37.1143 62.4195 37.4255 62.4195 38.0007Z" fill="#333132"/>
<path d="M66.6891 36.7151H67.7244V37.1887H66.8583C66.5674 37.1887 66.5132 37.2226 66.5132 37.5812V39.2863H66.0125V37.4053C66.0125 36.9451 66.229 36.7151 66.6959 36.7151" fill="#333132"/>
<path d="M70.891 36.7151H71.4323L72.0954 38.3999C72.1428 38.5082 72.1631 38.6638 72.1631 38.772H72.1766C72.1766 38.657 72.2037 38.5014 72.251 38.3999L72.9209 36.7151H73.4622L72.2849 39.6517C72.0819 40.2268 71.6556 40.3689 71.3714 40.3689H70.9113V39.9629H71.1752C71.3037 39.9629 71.6556 39.8885 71.7571 39.6043L71.8924 39.1916L70.8978 36.7151H70.891Z" fill="#333132"/>
<path d="M74.3824 38.0007C74.3824 37.1143 75.0388 36.6812 75.8034 36.688C76.568 36.688 77.2243 37.1143 77.2243 38.0007C77.2243 38.8871 76.568 39.3201 75.8034 39.3201C75.0388 39.3201 74.3824 38.8938 74.3824 38.0007ZM74.8899 38.0007C74.8899 38.6029 75.2959 38.8871 75.8034 38.8871C76.3108 38.8871 76.7236 38.5961 76.7236 38.0007C76.7236 37.4052 76.2905 37.1143 75.8034 37.1143C75.3297 37.1143 74.8899 37.4255 74.8899 38.0007Z" fill="#333132"/>
<path d="M78.4693 38.0142V36.7015H78.97V38.0142C78.97 38.5623 79.1798 38.8059 79.5993 38.8059C79.8226 38.8059 80.3165 38.6232 80.3165 37.6624V36.7015H80.8172V39.2727H80.3165V38.7788C80.3165 38.6705 80.3368 38.5352 80.3571 38.4337H80.3503C80.2556 38.9141 79.9714 39.3133 79.4233 39.3133C78.6791 39.3133 78.4693 38.6908 78.4693 38.0142Z" fill="#333132"/>
</g>
<defs>
<clipPath id="clip0_10_400">
<rect width="109.77" height="54.2727" fill="white" transform="translate(0.54834 0.968628)"/>
</clipPath>
</defs>
</svg>
